<svg fill="currentColor" version="1.1" viewBox="0 0 400 400" xmlns="http://www.w3.org/2000/svg"><path transform="translate(190,190)" d="m-176-181c-2.26.504-4.04 2.28-4.54 4.54-.159.712-.144 1.9-.144 2.64v367c0 .731-.0148 1.92.144 2.64.504 2.26 2.28 4.04 4.54 4.54.712.159 1.9.144 2.64.144h367c.731 0 1.92.0148 2.64-.144 2.26-.504 4.04-2.28 4.54-4.54.159-.712.144-1.9.144-2.64v-367c0-.731.0148-1.92-.144-2.64-.504-2.26-2.28-4.04-4.54-4.54-.712-.159-1.9-.144-2.64-.144h-367c-.731 0-1.92-.0148-2.64.144zm8.63 11.9h80.4a1.32 1.32 45 011.32 1.32v6.35c0 .731-.0024 1.56.0243 1.86-.0259 1.76-.0243 2.7-.0243 3.43v16.1c0 .731.0238 1.96-.323 2.59-.243.444-.61.811-1.05 1.05-.634.347-1.86.323-2.59.323h-56.1c-.731 0-1.92.009-2.65-.005-.854-.0166-1.8-.0759-2.59-.276-.703-.178-1.58-.8-1.92-1.25-.728-2-.787-2.94-.803-3.79-.0143-.73-.005-1.91-.005-2.65v-2.06c0-.731.007-1.92-.003-2.65-.0117-.852-.054-1.8-.199-2.62-.127-.717-.614-1.81-1.06-2.39-.305-.392-.658-.745-1.05-1.05-.575-.448-1.67-.941-2.39-1.06-.823-.133-1.76-.133-2.59-2e-5-.719.116-1.82.609-2.39 1.06-.392.305-.744.658-1.05 1.05-.448.575-.936 1.67-1.06 2.39-.145.822-.188 1.77-.199 2.62-.01.73-.003 1.91-.003 2.65v2.06c0 .731-.003 1.92 6e-4 2.65.004.852.0196 1.8.077 2.64.0492.727.236 1.9.418 2.61 1.45 5.64 5.94 10.1 11.6 11.6.707.182 1.88.369 2.61.418.847.0573 1.79.0729 2.64.0768.729.003 1.91.00059 2.64.00059h56.1c.731 0 1.96-.0238 2.59.323.444.243.811.61 1.05 1.05.347.634.323 1.86.323 2.59v116c0 .731-.0066 1.92.0033 2.65.0116.852.054 1.8.199 2.62.127.717.614 1.81 1.06 2.39.305.392.658.745 1.05 1.05.575.448 1.67.941 2.39 1.06.823.133 1.76.133 2.59-1.03e-5.719-.116 1.82-.609 2.39-1.06.392-.305.745-.658 1.05-1.05.448-.575.936-1.67 1.06-2.39.145-.822.188-1.77.199-2.62.01-.73.0033-1.91.0033-2.65v-116c0-.731-.0238-1.96.323-2.59.243-.444.61-.811 1.05-1.05.634-.347 1.86-.323 2.59-.323h56.1c.731 0 1.92.003 2.65-6e-4.852-.004 1.8-.0196 2.64-.077.727-.0492 1.9-.236 2.61-.418 5.64-1.45 10.1-5.94 11.6-11.6.182-.707.369-1.88.418-2.61.0572-.847.0729-1.79.0768-2.64.00331-.729.000592-1.91.000592-2.64v-2.06c0-.731.00665-1.92-.00334-2.65-.0117-.852-.054-1.8-.199-2.62-.127-.717-.614-1.81-1.06-2.39-.305-.392-.658-.745-1.05-1.05-.575-.448-1.67-.941-2.39-1.06-.823-.133-1.76-.133-2.59-2e-5-.719.116-1.82.609-2.39 1.06-.392.305-.744.658-1.05 1.05-.448.575-.936 1.67-1.06 2.39-.145.822-.188 1.77-.199 2.62-.00998.73-.00334 1.91-.00334 2.65v2.06c0 .731.00904 1.92-.00517 2.65-.0166.854-.0758 1.8-.276 2.59-.178.703-.801 1.58-1.25 1.92-2 .727-2.94.786-3.79.803-.73.0142-1.91.005-2.65.005h-56.1c-.731 0-1.96.0238-2.59-.323-.444-.243-.811-.61-1.05-1.05-.347-.634-.323-1.86-.323-2.59v-16.1c0-.731.0066-1.92-.0034-2.65-.006-.435.0032-1.03.0034-1.32v-7.68a1.32 1.32 135 011.32-1.32h165a1.32 1.32 45 011.32 1.32v3.87c0 .731-.0506 1.37-.113 1.44l-45.3 45.3a308463 308463 135 01-1.87 1.87l-28.1 28.1c-.517.517-1.36 1.35-1.87 1.87-.594.611-1.23 1.31-1.71 1.99-.418.597-.849 1.72-.939 2.44-.061.492-.061.991 0 1.48.0896.724.517 1.85.943 2.44.488.676 1.15 1.34 1.83 1.83.59.426 1.71.853 2.44.943.492.061.991.061 1.48 0 .724-.0896 1.84-.521 2.44-.939.684-.479 1.38-1.12 1.99-1.71.523-.509 1.36-1.35 1.87-1.87l22.6-22.6c.517-.517 1.36-1.36 1.99-1.73.654-.392 1.42-.709 2.16-.894.707-.177 1.9-.178 2.63-.178h87.1c.731 0 1.92.001 2.63.178.739.185 1.5.502 2.16.894.625.375 1.47 1.22 1.99 1.73l22.6 22.6c.517.517 1.35 1.36 1.87 1.87.611.594 1.31 1.23 1.99 1.71.597.418 1.72.849 2.44.939.492.061.991.061 1.48 0 .724-.0896 1.85-.517 2.44-.943.676-.488 1.34-1.15 1.83-1.83.426-.59.853-1.72.943-2.44.061-.492.061-.991 0-1.48-.0896-.724-.521-1.84-.939-2.44-.479-.684-1.12-1.38-1.71-1.99-.509-.524-1.35-1.36-1.87-1.87l-74.4-74.4c-.517-.517-.986-.986-1.05-1.05v-5.19a1.32 1.32 135 011.32-1.32h80.4a1.32 1.32 45 011.32 1.32v355a1.32 1.32 135 01-1.32 1.32h-30.4a1.32 1.32 45 01-1.32-1.32v-6.35c0-.731.002-1.56-.0243-1.86.0259-1.76.0243-2.7.0243-3.43v-72.1c0-.731.003-1.92-6e-4-2.65-.004-.852-.0196-1.8-.077-2.64-.0492-.727-.236-1.9-.418-2.61-1.45-5.64-5.94-10.1-11.6-11.6-.707-.182-1.88-.369-2.61-.418-.847-.0572-1.79-.0729-2.64-.0768-.729-.0033-1.91-.000592-2.64-.000592h-2.06c-.731 0-1.92-.0027-2.65.000604-.852.0039-1.8.0196-2.64.077-.727.0492-1.9.236-2.61.418-5.64 1.45-10.1 5.94-11.6 11.6-.182.707-.369 1.88-.418 2.61-.0572.847-.0729 1.79-.0768 2.64-.003.729-.00059 1.91-.00059 2.64v62.1c0 .731.009 1.92-.005 2.65-.0166.854-.0758 1.8-.276 2.59-.178.703-.801 1.58-1.25 1.93-2 .727-2.94.786-3.79.803-.73.0142-1.91.005-2.65.005h-12.1c-.731 0-1.92.009-2.65-.005-.854-.0166-1.8-.0758-2.59-.276-.703-.178-1.58-.801-1.92-1.25-.727-2-.786-2.94-.803-3.79-.0142-.73-.0052-1.91-.0052-2.65v-62.1c0-.731.0027-1.92-.000604-2.65-.0039-.852-.0196-1.8-.077-2.64-.0492-.727-.236-1.9-.418-2.61-1.45-5.64-5.94-10.1-11.6-11.6-.707-.182-1.88-.369-2.61-.418-.847-.0572-1.79-.0729-2.64-.0768-.729-.0033-1.91-.000592-2.64-.000592h-2.06c-.731 0-1.92-.0027-2.65.000604-.852.0039-1.8.0196-2.64.077-.727.0492-1.9.236-2.61.418-5.64 1.45-10.1 5.94-11.6 11.6-.182.707-.369 1.88-.418 2.61-.0572.847-.0729 1.79-.0768 2.64-.0033.729-.000592 1.91-.000592 2.64v72.1c0 .731-.0067 1.92.0031 2.65.0059.434-.0033 1.03-.0031 1.32v7.68a1.32 1.32 135 01-1.32 1.32h-115a1.32 1.32 45 01-1.32-1.32v-6.35c0-.731.0025-1.56-.0238-1.86.0254-1.76.0238-2.7.0238-3.43v-146c0-.731-.0238-1.96.323-2.59.243-.444.61-.811 1.05-1.05.634-.347 1.86-.323 2.59-.323h56.1c.731 0 1.92-.009 2.65.0053.854.0167 1.8.0761 2.59.276.703.178 1.58.801 1.93 1.25.727 2 .786 2.94.803 3.79.0142.73.00518 1.91.00518 2.65v62.1c0 .731-.00665 1.92.00334 2.65.0117.853.054 1.8.199 2.62.127.717.614 1.81 1.06 2.39.305.392.658.744 1.05 1.05.575.448 1.67.941 2.39 1.06.823.133 1.76.133 2.59.00029.719-.116 1.82-.609 2.39-1.06.392-.305.745-.658 1.05-1.05.448-.575.936-1.67 1.06-2.39.145-.822.188-1.77.199-2.62.00998-.73.00334-1.91.00334-2.65v-62.1c0-.731.00273-1.92-.000604-2.65-.00389-.852-.0196-1.8-.077-2.64-.0492-.727-.236-1.9-.418-2.61-1.45-5.64-5.94-10.1-11.6-11.6-.707-.182-1.88-.369-2.61-.418-.847-.0572-1.79-.0729-2.64-.0768-.729-.0033-1.91-.000592-2.64-.000592h-132c-.731 0-1.92-.0027-2.65.000604-.852.0039-1.8.0196-2.64.077-.727.0492-1.9.236-2.61.418-5.64 1.45-10.1 5.94-11.6 11.6-.182.707-.369 1.88-.418 2.61-.0573.847-.0729 1.79-.0768 2.64-.003.729-.00059 1.91-.00059 2.64v62.1c0 .731-.007 1.92.003 2.65.0117.853.054 1.8.199 2.62.127.717.614 1.81 1.06 2.39.305.392.658.744 1.05 1.05.575.448 1.67.941 2.39 1.06.823.133 1.76.133 2.59.00029.719-.116 1.82-.609 2.39-1.06.392-.305.745-.658 1.05-1.05.448-.575.936-1.67 1.06-2.39.145-.822.188-1.77.199-2.62.01-.73.003-1.91.003-2.65v-62.1c0-.731-.009-1.92.005-2.65.0167-.854.0761-1.8.276-2.59.178-.703.8-1.58 1.25-1.93 2-.727 2.94-.787 3.79-.803.73-.0143 1.91-.0053 2.65-.0053h56.1c.731 0 1.96-.0238 2.59.323.444.243.811.61 1.05 1.05.347.634.323 1.86.323 2.59v146c0 .731-.0066 1.92.0035 2.65.006.435-.0034 1.03-.0035 1.32v7.68a1.32 1.32 135 01-1.32 1.32h-80.4a1.32 1.32 45 01-1.32-1.32v-355a1.32 1.32 135 011.32-1.32zm269 18.9c.365.199 1.02.87 1.54 1.39l29.9 29.9c.517.517 1.44 1.53 1.16 2.16-.268.602-1.59.65-2.32.65h-63.1c-.731 0-2.1-.0636-2.35-.704-.236-.615.668-1.59 1.18-2.1l29.9-29.9c.517-.517 1.37-1.4 2.06-1.6.399-.117 1.38-.13 2.01.217zm-150 34.1c-.852.004-1.8.0196-2.64.077-.727.0492-1.9.236-2.61.418-5.64 1.45-10.1 5.94-11.6 11.6-.182.707-.372 1.88-.418 2.61-.0533.847-.0533 1.79 1.7e-5 2.64.0458.729.236 1.9.418 2.61 1.45 5.64 5.94 10.1 11.6 11.6.707.182 1.88.369 2.61.418.847.0572 1.79.0729 2.64.0768.729.0033 1.91.000592 2.64.000592h22.1c.731 0 1.92-.009 2.65.0053.854.0167 1.8.076 2.59.276.703.178 1.58.8 1.92 1.25.698 2 .698 2.94.517 3.73-.161.707-.79 1.59-1.24 1.93-2 .727-2.94.786-3.79.803-.73.0142-1.91.0052-2.65.0052h-22c-.731 0-1.92-.0026-2.65.00067-.852.0038-1.8.0188-2.64.073-.728.0465-1.9.223-2.61.394-5.83 1.4-10.7 5.85-12.1 11.8-.168.711-.327 1.89-.356 2.62-.0339.848-.0198 1.79.0131 2.64.0282.729.106 1.91.168 2.64 1 11.7 5.02 22 12 30.2.475.555 1.27 1.43 1.78 1.96.591.611 1.26 1.28 1.88 1.86.528.504 1.41 1.3 1.97 1.77 8.53 7.25 19.8 12.2 33.6 15.2.714.153 1.87.395 2.59.521.839.148 1.77.277 2.61.282.728.00408 1.9-.279 2.54-.617.44-.23.85-.514 1.22-.844.544-.485 1.23-1.48 1.47-2.16.278-.786.447-1.71.463-2.55.0147-.728-.274-1.9-.612-2.54-.23-.44-.514-.85-.844-1.22-.485-.544-1.48-1.22-2.16-1.47-.783-.291-1.7-.503-2.54-.675-.715-.147-1.88-.378-2.59-.534-11.7-2.56-20.7-6.62-27.2-11.9-.567-.46-1.46-1.24-1.99-1.74-.619-.583-1.29-1.25-1.88-1.86-.505-.527-1.29-1.41-1.75-1.98-4.83-5.9-7.66-13.1-8.49-22-.0675-.727-.155-1.91-.142-2.64.0149-.84.105-1.76.345-2.52.219-.69.973-1.53 1.49-1.87 2.02-.678 2.96-.746 3.81-.771.73-.0208 1.91-.0133 2.65-.0133h22c.731 0 1.92.0027 2.65-.000604.852-.0039 1.8-.0196 2.64-.077.727-.0492 1.9-.236 2.61-.418 5.64-1.45 10.1-5.94 11.6-11.6.182-.707.372-1.88.418-2.61.0533-.847.0533-1.79-1.59e-5-2.64-.0458-.729-.236-1.9-.418-2.61-1.45-5.64-5.94-10.1-11.6-11.6-.707-.182-1.88-.369-2.61-.418-.847-.0572-1.79-.0729-2.64-.0768-.729-.0033-1.91-.000592-2.64-.000592h-22.1c-.731 0-1.92.009-2.65-.0052-.854-.0166-1.8-.0758-2.59-.276-.703-.178-1.58-.801-1.93-1.25-.697-2-.697-2.94-.516-3.73.161-.707.79-1.59 1.24-1.93 2-.727 2.94-.787 3.79-.803.73-.0143 1.91-.005 2.65-.005h32.1c.731 0 1.92.007 2.65-.003.852-.0116 1.8-.054 2.62-.199.717-.127 1.81-.614 2.39-1.06.392-.305.745-.658 1.05-1.05.448-.575.941-1.67 1.06-2.39.133-.823.133-1.76 2.21e-5-2.59-.116-.719-.609-1.82-1.06-2.39-.305-.392-.658-.744-1.05-1.05-.575-.448-1.67-.936-2.39-1.06-.822-.145-1.77-.188-2.62-.199-.73-.01-1.91-.003-2.65-.003h-32.1c-.731 0-1.92-.003-2.65 6e-4zm-52.6.211c-.706.116-1.79.605-2.37 1.05-.392.305-.744.658-1.05 1.05-.448.575-.936 1.67-1.06 2.39-.145.822-.188 1.77-.199 2.62-.01.73-.003 1.91-.003 2.65v16.1c0 .731.0238 1.96-.323 2.59-.243.444-.61.811-1.05 1.05-.634.347-1.86.323-2.59.323h-.743c-.731 0-1.94.0094-2.6-.287-.552-.247-1.05-.639-1.45-1.11-.463-.56-.845-1.7-1.12-2.38-1.2-2.92-2.95-5.55-5.2-7.73-.525-.508-1.43-1.28-2.02-1.71-.685-.503-1.47-1.03-2.19-1.48-.621-.383-1.66-.948-2.32-1.26-5.11-2.46-11.2-3.66-18.4-3.97-.73-.0314-1.91-.0686-2.64-.0666-.852.002-1.8.0423-2.62.187-.717.126-1.81.614-2.39 1.06-.392.305-.745.658-1.05 1.05-.448.575-.942 1.67-1.06 2.39-.133.823-.133 1.76 5e-5 2.59.116.719.609 1.82 1.06 2.39.305.392.658.745 1.05 1.05.575.448 1.67.935 2.39 1.06.822.146 1.77.191 2.62.215.73.0205 1.91.0542 2.64.0953 4.86.274 8.74 1.05 11.7 2.13.685.254 1.77.738 2.4 1.1.739.418 1.53.934 2.2 1.45.58.443 1.43 1.27 1.87 1.86.724.971 1.22 2.07 1.53 3.41.162.712.298 1.89.328 2.62.0349.849.0272 1.79-.017 2.64-.0379.729-.179 1.91-.301 2.63-1.79 10.5-10.2 27.5-26.1 49.3-.432.59-1.14 1.54-1.57 2.13-.5.69-1.03 1.47-1.41 2.22-.329.65-.598 1.82-.584 2.55.009.497.08.991.21 1.47.191.704.774 1.76 1.28 2.28.579.6 1.33 1.16 2.07 1.55.645.339 1.82.602 2.55.589.497-.0092.991-.0798 1.47-.21.704-.191 1.75-.777 2.28-1.28.609-.571 1.21-1.3 1.73-1.98.445-.579 1.15-1.53 1.58-2.12 15-20.4 24.4-36.7 27.6-50.5.165-.712.392-1.9.812-2.49.333-.469.786-.855 1.3-1.1.653-.314 1.87-.3 2.6-.3h.523c.731 0 1.96-.0238 2.59.323.444.243.811.61 1.05 1.05.347.634.323 1.86.323 2.59v56.1c0 .731-.007 1.92.003 2.65.0117.852.054 1.8.199 2.62.127.717.614 1.81 1.06 2.39.305.392.658.745 1.05 1.05.575.448 1.67.942 2.39 1.06.823.133 1.76.133 2.59-4.45e-5.719-.116 1.82-.609 2.39-1.06.392-.305.745-.658 1.05-1.05.448-.575.936-1.67 1.06-2.39.145-.822.188-1.77.199-2.62.01-.73.0033-1.91.0033-2.65v-92.1c0-.731.0066-1.92-.0033-2.65-.0116-.852-.054-1.8-.199-2.62-.127-.717-.614-1.81-1.06-2.39-.305-.392-.658-.744-1.05-1.05-.575-.448-1.67-.941-2.39-1.06-.708-.114-1.29-.0995-1.29-.0995zm153 29.8c-.852.0158-1.79.0654-2.61.219-.716.134-1.64.563-2.07.859-1.47 1.57-1.94 2.38-2.24 3.16-.257.681-.375 1.88-.27 2.6.22 1.5 1.01 2.89 2.19 3.84.568.458 1.66.959 2.38 1.09.82.151 1.76.199 2.62.213.73.0123 1.91.0057 2.65.0057h16.1c.731 0 1.96-.0238 2.59.323.444.243.811.61 1.05 1.05.347.634.323 1.86.323 2.59v56.1c0 .731.009 1.92-.0052 2.65-.0166.854-.0758 1.8-.276 2.59-.178.703-.8 1.58-1.25 1.93-2 .727-2.94.786-3.79.803-.73.0142-1.91.00518-2.65.00518h-12.1c-.731 0-1.92-.00665-2.65.00335-.852.0117-1.8.054-2.62.199-.717.127-1.81.614-2.39 1.06-.392.305-.745.658-1.05 1.05-.448.575-.941 1.67-1.06 2.39-.133.823-.133 1.76 2.8e-5 2.59.116.719.609 1.82 1.06 2.39.305.392.658.745 1.05 1.05.575.448 1.67.936 2.39 1.06.822.145 1.77.188 2.62.199.73.00997 1.91.00333 2.65.00333h12.1c.731 0 1.92.00273 2.65-.000604.852-.00389 1.8-.0196 2.64-.077.727-.0492 1.9-.236 2.61-.418 5.64-1.45 10.1-5.94 11.6-11.6.182-.707.369-1.88.418-2.61.0572-.847.0727-1.79.0765-2.64.0032-.729.000503-1.91.000503-2.64v-56.1c0-.731-.0238-1.96.323-2.59.243-.444.61-.811 1.05-1.05.634-.347 1.86-.323 2.59-.323h20.1c.731 0 1.96-.0238 2.59.323.444.243.811.61 1.05 1.05.347.634.323 1.86.323 2.59v56.1c0 .731-.003 1.92 6e-4 2.65.004.852.0196 1.8.077 2.64.0492.727.236 1.9.418 2.61 1.45 5.64 5.94 10.1 11.6 11.6.707.182 1.88.369 2.61.418.847.0572 1.79.0729 2.64.0768.729.00331 1.91.000592 2.64.000592h12.1c.731 0 1.92.00665 2.65-.00333.852-.0116 1.8-.054 2.62-.199.717-.127 1.81-.614 2.39-1.06.392-.305.745-.658 1.05-1.05.448-.575.941-1.67 1.06-2.39.133-.823.133-1.76 1e-5-2.59-.116-.719-.609-1.82-1.06-2.39-.305-.392-.658-.744-1.05-1.05-.575-.448-1.67-.936-2.39-1.06-.822-.145-1.77-.188-2.62-.199-.73-.00998-1.91-.00333-2.65-.00333h-12.1c-.731 0-1.92.00904-2.65-.00518-.854-.0166-1.8-.0758-2.59-.276-.703-.178-1.58-.801-1.92-1.25-.727-2-.787-2.94-.803-3.79-.0143-.73-.005-1.91-.005-2.65v-56.1c0-.731-.0238-1.96.323-2.59.243-.444.61-.811 1.05-1.05.634-.347 1.86-.323 2.59-.323h16.1c.731 0 1.92.0065 2.65-.0067.852-.0154 1.79-.0645 2.61-.217.716-.134 1.81-.636 2.38-1.09.366-.293.696-.628.984-.998.448-.575.941-1.67 1.06-2.39.133-.823.133-1.76-2e-5-2.59-.116-.719-.609-1.82-1.06-2.39-.288-.37-.618-.705-.984-.998-.569-.456-1.66-.959-2.38-1.09-.82-.153-1.76-.202-2.61-.217-.73-.0132-1.91-.0067-2.65-.0067h-22.1-70c-.731 0-1.92-.0065-2.65.0071zm47.2 100c-.608.124-1.6.616-2.17 1.08-.499.405-1.03.901-1.52 1.38-.522.511-1.36 1.35-1.87 1.87l-74.4 74.4c-.517.517-1.36 1.35-1.87 1.87-.594.611-1.23 1.31-1.71 1.99-.418.597-.849 1.72-.939 2.44-.061.492-.061.991-1e-6 1.48.0896.724.517 1.85.943 2.44.488.676 1.15 1.34 1.83 1.83.59.426 1.71.853 2.44.943.492.061.991.061 1.48-1e-5.724-.0896 1.84-.521 2.44-.939.684-.479 1.38-1.12 1.99-1.71.523-.509 1.36-1.35 1.87-1.87l70.1-70.1c.517-.517 1.37-1.4 2.06-1.6.486-.142 1-.142 1.49-2.6e-5.694.203 1.54 1.09 2.06 1.6l70.1 70.1c.517.517 1.35 1.36 1.87 1.87.611.594 1.31 1.23 1.99 1.71.597.418 1.72.849 2.44.939.407.0504 1.35.043 2.03-.21 1.84-.682 3.77-2.62 4.45-4.45.253-.681.27-1.89.111-2.6-.0895-.401-.422-1.27-.84-1.87-.479-.684-1.12-1.38-1.71-1.99-.509-.523-1.35-1.36-1.87-1.87l-74.4-74.4c-.517-.517-1.35-1.36-1.87-1.87-.611-.594-1.31-1.23-1.99-1.71-.597-.418-1.73-.823-2.45-.878-.499-.0383-1.5-.0186-2.22.127zm-222 19.8c-.852.0034-1.8.0171-2.64.0672-.728.043-1.9.206-2.62.366-5.7 1.27-10.5 5.26-12.6 10.7-.266.68-.604 1.82-.755 2.53-.175.831-.326 1.76-.452 2.61-.107.722-.269 1.89-.368 2.62-3.86 28.4-3.83 56.5-.0383 84.2.0994.724.264 1.9.373 2.62.127.842.281 1.77.457 2.61.152.713.492 1.85.759 2.53 2.15 5.46 6.92 9.44 12.6 10.7.713.159 1.89.322 2.62.365.848.0499 1.79.0636 2.64.0669.729.003 1.91.00051 2.64.00051h2.06c.731 0 1.92.002 2.65-.00048.852-.003 1.8-.017 2.64-.067.728-.0429 1.9-.206 2.62-.365 5.7-1.27 10.5-5.26 12.6-10.7.267-.68.606-1.82.757-2.53.176-.831.328-1.76.455-2.61.108-.721.271-1.89.37-2.62 3.83-28.1 3.84-56.1.0023-84.2-.0989-.724-.262-1.9-.371-2.62-.126-.842-.279-1.78-.455-2.61-.151-.713-.49-1.85-.757-2.53-2.15-5.46-6.91-9.45-12.6-10.7-.713-.159-1.89-.322-2.62-.365-.848-.05-1.79-.0638-2.64-.0672-.729-.0029-1.91-.000552-2.64-.000552h-2.06c-.731 0-1.92-.0024-2.65.000507zm75 9.7e-5c-.852.0039-1.8.0196-2.64.077-.727.0492-1.9.236-2.61.418-5.64 1.45-10.1 5.94-11.6 11.6-.182.707-.369 1.88-.418 2.61-.0572.847-.0729 1.79-.0768 2.64-.0033.729-.000593 1.91-.000593 2.64v2.06c0 .731-.0027 1.92.00061 2.65.0039.852.0196 1.8.077 2.64.0492.727.236 1.9.418 2.61 1.45 5.64 5.94 10.1 11.6 11.6.707.182 1.88.369 2.61.418.848.0572 1.79.0727 2.64.0765.729.0032 1.91.000502 2.64.000502h12.1c.731 0 1.92-.009 2.65.0053.854.0167 1.8.0761 2.59.276.703.178 1.58.8 1.92 1.25.727 2 .786 2.94.803 3.79.0142.73.0052 1.91.0052 2.65v2.06c0 .731.009 1.92-.0052 2.65-.0166.854-.0758 1.8-.276 2.59-.178.703-.8 1.58-1.25 1.92-2 .727-2.94.787-3.79.803-.73.0143-1.91.0053-2.65.0053h-12.1c-.731 0-1.92-.0028-2.65.000609-.852.0039-1.8.0199-2.64.0779-.727.0498-1.9.239-2.6.423-5.69 1.48-10.3 6.08-11.5 11.9-.152.714-.286 1.89-.298 2.62-.0144.849.0207 1.79.0671 2.64.0396.728.122 1.91.178 2.64 1.18 15.5 4.4 28.3 10.1 38.4.359.637.966 1.65 1.36 2.27.457.718.979 1.5 1.46 2.2.416.6 1.12 1.55 1.57 2.13 6.63 8.4 15.7 13.9 26.4 16.1.716.147 1.88.357 2.61.452.845.111 1.79.191 2.62.15.728-.0357 1.88-.384 2.5-.758.426-.254.82-.56 1.17-.911.516-.515 1.14-1.54 1.35-2.24.234-.8.351-1.73.321-2.57-.0259-.728-.379-1.88-.753-2.5-.254-.426-.56-.82-.911-1.17-.515-.516-1.54-1.14-2.24-1.35-.798-.247-1.73-.411-2.57-.548-.721-.117-1.89-.321-2.6-.477-7.45-1.62-13.2-5.11-17.8-10.8-.462-.566-1.18-1.51-1.59-2.11-.486-.698-1.01-1.49-1.46-2.21-.388-.619-.98-1.65-1.32-2.29-4.21-7.86-7.04-18.6-8.12-32.3-.0578-.728-.149-1.91-.174-2.64-.0284-.853-.0073-1.8.18-2.58.169-.703.734-1.4 1-1.61 1.99-.73 2.94-.784 3.8-.797.73-.0108 1.91-.001 2.65-.001h12.1c.731 0 1.92.003 2.65-.00062.852-.004 1.8-.0197 2.64-.077.727-.0492 1.9-.236 2.61-.418 5.64-1.45 10.1-5.94 11.6-11.6.182-.707.369-1.88.418-2.61.0572-.847.0729-1.79.0768-2.64.0033-.729.000593-1.91.000593-2.64v-2.06c0-.731.0027-1.92-.00061-2.65-.0039-.852-.0196-1.8-.077-2.64-.0492-.727-.236-1.9-.418-2.61-1.45-5.64-5.94-10.1-11.6-11.6-.707-.182-1.88-.369-2.61-.418-.847-.0572-1.79-.0729-2.64-.0768-.729-.00367-1.91-.00095-2.64-.00095h-12.1c-.731 0-1.92.009-2.65-.0052-.854-.0166-1.8-.0758-2.59-.276-.703-.178-1.58-.801-1.93-1.25-.727-2-.786-2.94-.803-3.79-.0142-.73-.0052-1.91-.0052-2.65v-2.06c0-.731-.009-1.92.0052-2.65.0166-.854.0758-1.8.276-2.59.178-.703.801-1.58 1.25-1.93 2-.727 2.94-.786 3.79-.803.73-.0142 1.91-.0052 2.65-.0052h22.1c.731 0 1.92.0066 2.65-.0033.852-.0116 1.8-.054 2.62-.199.717-.127 1.81-.614 2.39-1.06.392-.305.745-.658 1.05-1.05.448-.575.941-1.67 1.06-2.39.133-.823.133-1.76-1.1e-5-2.59-.116-.719-.609-1.82-1.06-2.39-.305-.392-.658-.745-1.05-1.05-.575-.448-1.67-.936-2.39-1.06-.822-.145-1.77-.188-2.62-.199-.73-.01-1.91-.0033-2.65-.0033h-22.1c-.731 0-1.92-.0027-2.65.000604zm147 10.2c-.706.116-1.79.605-2.37 1.05-.392.305-.745.658-1.05 1.05-.448.575-.936 1.67-1.06 2.39-.145.822-.187 1.77-.199 2.62-.0099.73-.0032 1.91-.0032 2.65v102c0 .731-.0067 1.92.0032 2.65.0116.852.0538 1.8.199 2.62.127.717.614 1.81 1.06 2.39.305.392.658.745 1.05 1.05.575.448 1.67.941 2.39 1.06.823.133 1.76.133 2.59-1e-5.719-.116 1.82-.609 2.39-1.06.392-.305.745-.658 1.05-1.05.448-.575.936-1.67 1.06-2.39.145-.822.188-1.77.199-2.62.01-.73.003-1.91.003-2.65v-102c0-.731.007-1.92-.003-2.65-.0117-.852-.054-1.8-.199-2.62-.127-.717-.614-1.81-1.06-2.39-.305-.392-.658-.745-1.05-1.05-.575-.448-1.67-.941-2.39-1.06-.708-.114-1.89-.115-2.61.0038zm-220 1.79h2.06c.731 0 1.92-.006 2.65.0224.847.033 1.78.113 2.58.301.709.166 1.76.749 2.32 1.22.544.452 1.3 1.36 1.58 2.03.319.758.544 1.66.704 2.49.138.717.298 1.89.396 2.62 3.66 26.9 3.66 53.7-.002 80.6-.0985.724-.258 1.9-.396 2.62-.16.83-.385 1.74-.704 2.49-.282.671-1.05 1.59-1.61 2.06-.546.449-1.58 1.02-2.29 1.19-.804.189-1.74.268-2.58.301-.73.0284-1.91.0224-2.65.0224h-2.06c-.731 0-1.92.006-2.65-.0225-.847-.0331-1.78-.113-2.58-.301-.709-.166-1.76-.748-2.32-1.21-.55-.456-1.31-1.37-1.59-2.04-.32-.757-.547-1.66-.707-2.49-.139-.717-.299-1.89-.398-2.61-3.62-26.5-3.65-53.4.0403-80.6.0979-.724.256-1.9.393-2.62.159-.831.383-1.74.701-2.5.281-.671 1.05-1.59 1.61-2.06.54-.445 1.57-1.02 2.28-1.18.804-.189 1.74-.268 2.58-.301.73-.0283 1.32-.0223 1.32-.0223zm185 50h2.06c.731 0 1.92-.009 2.65.0052.854.0166 1.8.0758 2.59.276.703.178 1.58.8 1.93 1.25.727 2 .786 2.94.803 3.79.0142.73.0052 1.91.0052 2.65v62.1c0 .731-.0027 1.92.000604 2.65.0039.852.0196 1.8.077 2.64.0492.727.236 1.9.418 2.61 1.45 5.64 5.94 10.1 11.6 11.6.707.182 1.88.369 2.61.418.847.0572 1.79.0729 2.64.0768.729.003 1.91.00059 2.64.00059h12.1c.731 0 1.92.003 2.65-6e-4.852-.004 1.8-.0196 2.64-.077.727-.0492 1.9-.236 2.61-.418 5.64-1.45 10.1-5.94 11.6-11.6.182-.707.369-1.88.418-2.61.0573-.847.0729-1.79.0768-2.64.003-.729.00059-1.91.00059-2.64v-62.1c0-.731-.009-1.92.005-2.65.0167-.854.0761-1.8.276-2.59.178-.703.8-1.58 1.25-1.92 2-.727 2.94-.786 3.79-.803.73-.0142 1.91-.0052 2.65-.0052h2.06c.731 0 1.92-.009 2.65.0052.854.0166 1.8.0758 2.59.276.703.178 1.58.8 1.92 1.25.727 2 .786 2.94.803 3.79.0142.73.005 1.91.005 2.65v70.7c0 .731-.004 1.92.003 2.65.002.169.004.342.008.517.0154.73-.0106 1.71-.0108 2.2v7.68a1.32 1.32 135 01-1.32 1.32h-85.4a1.32 1.32 45 01-1.32-1.32v-6.35c0-.731.0026-1.56-.0238-1.86.0254-1.76.0238-2.7.0238-3.43v-72.1c0-.731-.009-1.92.0052-2.65.0166-.854.0758-1.8.276-2.59.178-.703.801-1.58 1.25-1.92 2-.727 2.94-.786 3.79-.803.73-.0142 1.91-.0052 2.65-.0052z"/></svg>
