<svg version="1.1" viewBox="0 0 200 200" xmlns="http://www.w3.org/2000/svg"><path d="m97.4 14.6c-1.03.485-2.52 2.02-3.55 3.05l-76.3 76.3c-1.03 1.03-2.79 2.72-3.28 4.09-.468 1.31-.468 2.74 1e-6 4.05.488 1.36 2.26 3.13 3.62 3.62 1.31.468 2.74.468 4.05 0 1.36-.488 3.05-2.24 4.09-3.28l24.5-24.5c1.03-1.03 3.06-1.87 4.52-1.87 33.9 0 63.8 2e-6 89.7 0 1.46 0 3.48.838 4.52 1.87l24.5 24.5c1.03 1.03 2.72 2.79 4.09 3.28 1.31.468 2.74.468 4.05 0 1.36-.488 3.13-2.26 3.62-3.62.468-1.31.468-2.74 0-4.05-.488-1.36-2.24-3.05-3.28-4.09l-76.3-76.3c-1.03-1.03-2.72-2.79-4.09-3.28-1.07-.384-3.28-.397-4.59.222zm4.43 15.8 31.8 31.8a1.1 1.1 112 01-.775 1.87h-65.7a1.1 1.1 67.5 01-.775-1.87l31.8-31.8a2.65 2.65 2.02e-6 013.74 0zm-54.4 64.3c-.28.137-.549.296-.804.474-1.19.831-2.44 3-2.55 4.44-.192 2.44 1.16 4.8 3.35 5.87 1.3.636 3.74.601 5.2.601h18.7a2.65 2.65 45 012.65 2.65v58.7c0 1.46.0614 3.97-.808 5.12-.207.272-.45.515-.722.722-1.14.87-3.65.808-5.12.808h-14.7c-1.46 0-3.9-.0469-5.21.572-1.26.594-2.27 1.61-2.87 2.87-.619 1.31-.619 3.81-3.7e-5 5.12.594 1.26 1.61 2.27 2.87 2.87 1.31.619 3.75.573 5.21.573h14.7c1.46 0 3.84.0227 5.28-.221 6.68-1.13 12-6.47 13.1-13.1.243-1.44.221-3.82.221-5.28v-58.7a2.65 2.65 135 012.65-2.65h22.7a2.65 2.65 45 012.65 2.65v58.7c0 1.46-.0227 3.84.221 5.28 1.13 6.68 6.47 12 13.1 13.1 1.44.243 3.82.221 5.28.221h14.7c1.46 0 3.9.0469 5.21-.573 1.26-.594 2.27-1.61 2.87-2.87.619-1.31.619-3.81-4e-5-5.12-.594-1.26-1.61-2.27-2.87-2.87-1.31-.619-3.75-.572-5.21-.572h-14.7c-1.46 0-3.97.0614-5.12-.809-.272-.207-.514-.45-.722-.722-.87-1.14-.808-3.65-.808-5.12v-58.7a2.65 2.65 135 012.65-2.65h18.7c1.46 0 3.9.0291 5.2-.609 1.22-.599 2.21-1.6 2.79-2.83.619-1.31.619-3.81 0-5.12-.581-1.23-1.57-2.23-2.79-2.83-1.3-.638-3.74-.609-5.2-.609h-24.7-70c-1.46 0-3.9-.027-5.2.61z" stop-color="#000000"/></svg>
